<svg viewBox="0 0 781 796" version="1.1" xmlns="http://www.w3.org/2000/svg" xmlns:xlink="http://www.w3.org/1999/xlink">
    <g id="Page-1" stroke="none" stroke-width="1" fill="none" fill-rule="evenodd">
        <g id="camera" transform="translate(135.000000, 158.000000)" fill="#000000" fill-rule="nonzero">
            <path d="M462,260.01 C456.47,260.01 452.01,264.462 452.01,270 C452.01,275.911 457.075,280.526 463,279.938 C468.118,279.43 471.99,275.146 471.99,270 C471.99,264.47 467.538,260.01 462,260.01 Z" id="Path"></path>
            <path d="M256,220.01 C250.47,220.01 246.01,224.462 246.01,230 C246.01,235.143 249.879,239.43 255,239.938 C260.929,240.527 265.99,235.907 265.99,230 C265.99,224.47 261.538,220.01 256,220.01 Z" id="Path"></path>
            <path d="M256,180 C184.317,180 126,238.318 126,310 C126,381.682 184.317,440 256,440 C327.683,440 386,381.682 386,310 C386,238.318 327.683,180 256,180 Z M256,420 C195.346,420 146,370.654 146,310 C146,249.346 195.346,200 256,200 C316.654,200 366,249.346 366,310 C366,370.654 316.654,420 256,420 Z" id="Shape"></path>
            <path d="M299.574,231.267 C294.745,228.585 288.658,230.327 285.977,235.155 C283.295,239.983 285.037,246.071 289.865,248.752 C312.154,261.129 326,284.598 326,310 C326,315.523 330.478,320 336,320 C341.522,320 346,315.523 346,310 C346,277.337 328.211,247.168 299.574,231.267 Z" id="Path"></path>
            <path d="M482,160 L472,160 L472,130 C472,124.477 467.522,120 462,120 L422,120 C416.478,120 412,124.477 412,130 L412,160 L336.019,160 C326.416,154.871 316.358,150.683 306,147.497 L306,120 L336,120 C352.542,120 366,106.542 366,90 L366,30 C366,13.458 352.542,0 336,0 L176,0 C159.458,0 146,13.458 146,30 L146,90 C146,106.542 159.458,120 176,120 L206,120 L206,147.497 C195.642,150.683 185.585,154.871 175.98,160 C152.209,160 122.42,160 100,160 L100,130 C100,124.477 95.522,120 90,120 L50,120 C44.478,120 40,124.477 40,130 L40,160 L30,160 C13.458,160 0,173.458 0,190 C0,199.862 0,419.357 0,430 C0,446.542 13.458,460 30,460 L175.981,460 C200.476,473.079 228.077,480 256,480 C283.923,480 311.523,473.08 336.019,460 L482,460 C498.542,460 512,446.542 512,430 C512,420.138 512,200.643 512,190 C512,173.458 498.542,160 482,160 Z M432,140 L452,140 L452,160 L432,160 L432,140 Z M176,100 C170.486,100 166,95.514 166,90 L166,30 C166,24.486 170.486,20 176,20 L336,20 C341.514,20 346,24.486 346,30 L346,90 C346,95.514 341.514,100 336,100 L176,100 Z M286,120 L286,142.662 C276.137,140.906 266.094,140 256,140 C245.906,140 235.863,140.906 226,142.661 L226,120 L286,120 Z M60,140 L80,140 L80,160 L60,160 L60,140 Z M20,190 C20,184.486 24.486,179.9 30,179.9 L146.471,179.9 C132.931,191.316 121.196,204.894 111.757,220 L20,220 L20,190 Z M20,239.9 L101.051,239.9 C91.17,261.778 86,285.774 86,310 C86,334.227 91.17,358.123 101.051,380 L20,380 L20,239.9 Z M30,440 C24.486,440 20,435.514 20,430 L20,400 L111.757,400 C121.197,415.107 132.932,428.585 146.471,440 L30,440 Z M256,460 C173.096,460 106,392.777 106,310 C106,227.535 172.789,160 256,160 C338.847,160 406,227.172 406,310 C406,393.086 338.602,460 256,460 Z M492,430 C492,435.514 487.514,440 482,440 L365.529,440 C379.069,428.584 390.804,415.106 400.243,400 L492,400 L492,430 Z M492,380 L410.949,380 C420.83,358.122 426,334.226 426,310 C426,285.774 420.83,261.878 410.949,240 L492,240 L492,380 Z M492,220 L400.243,220 C390.804,204.893 379.069,191.415 365.529,180 L482,180 C487.514,180 492,184.486 492,190 L492,220 Z" id="Shape"></path>
            <path d="M316,40 C310.478,40 306,44.477 306,50 L306,70 C306,75.523 310.478,80 316,80 C321.522,80 326,75.523 326,70 L326,50 C326,44.477 321.522,40 316,40 Z" id="Path"></path>
        </g>
        <ellipse id="Oval" stroke="#000000" stroke-width="10" cx="390.5" cy="398" rx="385.5" ry="393"></ellipse>
    </g>
</svg>