<svg viewBox="0 0 781 796" version="1.1" xmlns="http://www.w3.org/2000/svg" xmlns:xlink="http://www.w3.org/1999/xlink">
    <g id="Page-1" stroke="none" stroke-width="1" fill="none" fill-rule="evenodd">
        <ellipse id="Oval" stroke="#000000" stroke-width="10" cx="390.5" cy="398" rx="385.5" ry="393"></ellipse>
        <g id="money" transform="translate(151.000000, 166.000000)" fill="#000000" fill-rule="nonzero">
            <path d="M406.872,153.017 C406.867,153.017 406.861,153.017 406.856,153.017 L6.856,153.017 C3.074,153.013 0.004,156.075 5.92209777e-15,159.857 C5.92209777e-15,159.862 5.92209777e-15,159.868 5.92209777e-15,159.873 L5.92209777e-15,351.873 C-0.004,355.655 3.058,358.725 6.84,358.729 C6.845,358.729 6.851,358.729 6.856,358.729 L278.856,358.729 C282.642,358.729 285.712,355.659 285.712,351.873 C285.712,348.087 282.642,345.017 278.856,345.017 L13.712,345.017 L13.712,166.729 L400,166.729 L400,183.873 C399.996,187.655 403.058,190.725 406.84,190.729 C406.845,190.729 406.851,190.729 406.856,190.729 C410.638,190.733 413.708,187.671 413.712,183.889 C413.712,183.884 413.712,183.878 413.712,183.873 L413.712,159.873 C413.716,156.091 410.654,153.022 406.872,153.017 Z" id="Path"></path>
            <path d="M360.36,121.185 L40.36,49.185 C38.584,48.788 36.723,49.11 35.184,50.081 C33.647,51.06 32.56,52.607 32.16,54.385 L16.16,126.385 C15.338,130.083 17.67,133.747 21.368,134.569 C25.066,135.391 28.73,133.059 29.552,129.361 L44.056,64.073 L357.352,134.561 C357.848,134.676 358.355,134.733 358.864,134.729 C362.65,134.722 365.714,131.647 365.708,127.861 C365.702,124.66 363.482,121.89 360.36,121.185 Z" id="Path"></path>
            <path d="M321.504,81.513 L129.504,1.513 C126.167,0.122 122.322,1.551 120.704,4.785 L104.704,36.785 C102.897,40.127 104.141,44.302 107.484,46.109 C110.826,47.916 115.001,46.672 116.808,43.329 C116.879,43.198 116.946,43.064 117.008,42.928 L117.008,42.944 L130.136,16.672 L316.208,94.2 C319.712,95.662 323.738,94.008 325.2,90.504 C326.662,87.002 325.008,82.976 321.504,81.513 Z" id="Path"></path>
            <path d="M326.352,185.017 L262.856,185.017 C259.07,185.017 256,188.087 256,191.873 C256,195.659 259.07,198.729 262.856,198.729 L326.352,198.729 C330.138,198.729 333.208,195.659 333.208,191.873 C333.208,188.087 330.138,185.017 326.352,185.017 Z" id="Path"></path>
            <path d="M198.856,185.473 C159.975,185.473 128.456,216.992 128.456,255.873 C128.496,294.737 159.992,326.233 198.856,326.273 C237.737,326.273 269.256,294.754 269.256,255.873 C269.256,216.992 237.737,185.473 198.856,185.473 Z M198.856,313.473 C167.044,313.473 141.256,287.685 141.256,255.873 C141.291,224.076 167.059,198.308 198.856,198.273 C230.668,198.273 256.456,224.061 256.456,255.873 C256.456,287.685 230.668,313.473 198.856,313.473 Z" id="Shape"></path>
            <path d="M390.856,207.873 C348.456,207.873 302.856,217.889 302.856,239.873 L302.856,431.873 C302.856,453.857 348.456,463.873 390.856,463.873 C433.256,463.873 478.856,453.857 478.856,431.873 L478.856,239.873 C478.856,217.889 433.256,207.873 390.856,207.873 Z M462.856,431.753 C461.648,436.193 437.656,447.873 390.856,447.873 C344.056,447.873 320.064,436.193 318.856,431.873 L318.856,419.297 C335.88,427.873 364,431.873 390.856,431.873 C417.712,431.873 445.84,427.833 462.856,419.289 L462.856,431.753 Z M462.856,399.753 C461.648,404.193 437.656,415.873 390.856,415.873 C344.056,415.873 320.064,404.193 318.856,399.873 L318.856,387.297 C335.88,395.873 364,399.873 390.856,399.873 C417.712,399.873 445.84,395.833 462.856,387.289 L462.856,399.753 Z M462.856,367.753 C461.648,372.193 437.656,383.873 390.856,383.873 C344.056,383.873 320.064,372.193 318.856,367.873 L318.856,355.297 C335.88,363.873 364,367.873 390.856,367.873 C417.712,367.873 445.84,363.833 462.856,355.289 L462.856,367.753 Z M462.856,335.753 C461.648,340.193 437.656,351.873 390.856,351.873 C344.056,351.873 320.064,340.193 318.856,335.873 L318.856,323.297 C335.88,331.873 364,335.873 390.856,335.873 C417.712,335.873 445.84,331.833 462.856,323.289 L462.856,335.753 Z M462.856,303.753 C461.648,308.193 437.656,319.873 390.856,319.873 C344.056,319.873 320.064,308.193 318.856,303.873 L318.856,291.297 C335.88,299.833 364,303.873 390.856,303.873 C417.712,303.873 445.84,299.833 462.856,291.289 L462.856,303.753 Z M462.856,271.753 C461.648,276.193 437.656,287.873 390.856,287.873 C344.056,287.873 320.064,276.193 318.856,271.873 L318.856,259.297 C335.88,267.833 364,271.873 390.856,271.873 C417.712,271.873 445.84,267.833 462.856,259.289 L462.856,271.753 Z M390.856,255.873 C344.128,255.873 320.144,244.225 318.856,240.017 L318.856,239.969 C320.144,235.513 344.128,223.873 390.856,223.873 C437.256,223.873 461.256,235.345 462.856,239.873 C461.256,244.401 437.256,255.873 390.856,255.873 Z" id="Shape"></path>
            <path d="M134.856,313.009 L74.384,313.009 L45.712,281.649 L45.712,229.649 L77.376,198.729 L134.856,198.729 C138.642,198.729 141.712,195.659 141.712,191.873 C141.712,188.087 138.642,185.017 134.856,185.017 L74.592,185.017 C72.8,185.013 71.077,185.711 69.792,186.961 L34.056,221.817 C32.721,223.377 31.989,225.364 31.992,227.417 L31.992,284.313 C31.992,286.024 32.631,287.673 33.784,288.937 L66.288,324.489 C67.587,325.911 69.425,326.722 71.352,326.721 L134.856,326.721 C138.642,326.721 141.712,323.651 141.712,319.865 C141.712,316.079 138.643,313.009 134.856,313.009 Z" id="Path"></path>
            <path d="M202.856,247.873 L194.856,247.873 C192.368,247.873 190.856,246.481 190.856,245.873 C190.856,245.265 192.368,243.873 194.856,243.873 L214.856,243.873 C219.274,243.873 222.856,240.291 222.856,235.873 C222.856,231.455 219.274,227.873 214.856,227.873 L206.856,227.873 C206.856,223.455 203.274,219.873 198.856,219.873 C194.438,219.873 190.856,223.455 190.856,227.873 L190.856,228.233 C181.983,229.486 175.261,236.881 174.856,245.833 C175.429,256.322 184.363,264.381 194.856,263.873 L202.856,263.873 C205.344,263.873 206.856,265.265 206.856,265.873 C206.856,266.481 205.344,267.873 202.856,267.873 L182.856,267.873 C178.438,267.873 174.856,271.455 174.856,275.873 C174.856,280.291 178.438,283.873 182.856,283.873 L190.856,283.873 C190.856,288.291 194.438,291.873 198.856,291.873 C203.274,291.873 206.856,288.291 206.856,283.873 L206.856,283.513 C215.729,282.26 222.451,274.865 222.856,265.913 C222.283,255.424 213.349,247.365 202.856,247.873 Z" id="Path"></path>
        </g>
    </g>
</svg>