<svg viewBox="0 0 781 796" version="1.1" xmlns="http://www.w3.org/2000/svg" xmlns:xlink="http://www.w3.org/1999/xlink">
    <g id="Page-1" stroke="none" stroke-width="1" fill="none" fill-rule="evenodd">
        <ellipse id="Oval" stroke="#000000" stroke-width="10" cx="390.5" cy="398" rx="385.5" ry="393"></ellipse>
        <g id="group" transform="translate(117.000000, 223.000000)" fill="#000000" fill-rule="nonzero">
            <path d="M366.968561,197.173785 L320.542476,176.481172 C317.262546,175.019763 315.144812,171.749754 315.144812,168.151781 L315.144812,155.366588 C330.740193,142.905085 340.764274,123.715544 340.764274,102.211037 L340.764274,84.213699 C345.902014,81.3667288 349.303384,75.8650791 349.303384,69.7032314 L349.303384,67.9565911 C349.303384,30.4855492 318.904109,0 281.53911,0 L264.46089,0 C227.095891,0 196.696616,30.4855492 196.696616,67.9565911 L196.696616,83.8045472 C196.696616,89.2207344 199.02101,94.1273514 203.072187,97.2670307 C203.759278,97.7990349 204.482589,98.2669422 205.235726,98.6718209 L205.235726,102.209969 C205.235726,123.714476 215.258741,142.904016 230.853057,155.364452 L230.853057,168.150713 C230.853057,171.748685 228.734258,175.018695 225.455393,176.480104 L179.029308,197.172717 C163.824877,203.948826 154,219.109877 154,235.795366 L154,341.98682 C154,346.411642 157.577137,349.998932 161.989437,349.998932 C166.401737,349.998932 169.978874,346.411642 169.978874,341.98682 L169.978874,235.796434 C169.978874,234.868098 170.04492,233.950444 170.140793,233.040268 L191.533309,254.493497 C194.862242,257.832945 196.696616,262.271655 196.696616,266.994527 L196.696616,341.987889 C196.696616,346.412711 200.273753,350 204.686053,350 C209.098353,350 212.67549,346.412711 212.67549,341.987889 L212.67549,266.994527 C212.67549,257.992119 209.180378,249.529193 202.832504,243.163304 L177.329156,217.586508 C179.626918,215.195694 182.383806,213.214032 185.519927,211.815651 L231.163047,191.472367 L265.011628,225.417011 L265.011628,341.98682 C265.011628,346.411642 268.588766,349.998932 273.001065,349.998932 C277.413365,349.998932 280.990502,346.411642 280.990502,341.98682 L280.990502,225.41808 L314.839083,191.473435 L360.481139,211.815651 C363.617259,213.214032 366.374147,215.195694 368.671909,217.587576 L343.168561,243.163304 C336.820687,249.529193 333.325575,257.992119 333.325575,266.994527 L333.325575,341.987889 C333.325575,346.412711 336.902712,350 341.315012,350 C345.727312,350 349.304449,346.412711 349.304449,341.987889 L349.304449,266.994527 C349.304449,262.272723 351.137758,257.832945 354.467756,254.493497 L375.859207,233.041336 C375.95508,233.951512 376.021126,234.867029 376.021126,235.795366 L376.021126,341.98682 C376.021126,346.411642 379.598263,349.998932 384.010563,349.998932 C388.422863,349.998932 392,346.411642 392,341.98682 L392,235.796434 C391.996804,219.110946 382.172993,203.949895 366.968561,197.173785 Z M272.997869,210.768735 L243.297404,180.982911 C245.555751,177.17235 246.830866,172.763553 246.830866,168.151781 L246.830866,164.891386 C254.887414,168.286385 263.727992,170.167629 272.998935,170.167629 C282.269877,170.167629 291.10939,168.287453 299.164873,164.892455 L299.164873,168.151781 C299.164873,172.764621 300.439987,177.17235 302.6994,180.983979 L272.997869,210.768735 Z M272.998935,154.142338 C244.444687,154.143406 221.213535,130.846323 221.213535,102.211037 L221.213535,98.607724 C226.198944,96.6260618 231.065043,93.4724948 235.723418,89.1619789 C238.964999,86.1611762 239.168463,81.0921805 236.175087,77.8403316 C233.182777,74.589551 228.129192,74.3855092 224.88548,77.386312 C220.889697,81.0857708 216.897109,83.4755165 213.021699,84.4903839 C212.927956,84.5149544 212.858715,84.5256372 212.809713,84.5299104 C212.752189,84.4177408 212.674425,84.1827189 212.674425,83.8056155 L212.674425,67.9576594 C212.674425,39.3223738 235.905577,16.0252908 264.459825,16.0252908 L281.538045,16.0252908 C310.093358,16.0252908 333.323445,39.3223738 333.323445,67.9576594 L333.323445,69.7042997 C333.323445,69.9638921 333.167917,70.1892995 332.963387,70.2298942 C285.121574,79.7055511 261.125566,61.8470892 253.029603,53.7281498 C249.909462,50.5991533 244.850551,50.5991533 241.731474,53.7281498 C238.611333,56.8571463 238.611333,61.9304152 241.731474,65.0583434 C266.541339,89.9386196 302.744141,90.3872978 324.784334,87.73155 L324.784334,102.209969 C324.784334,130.845255 301.553182,154.142338 272.998935,154.142338 Z" id="Shape"></path>
            <path d="M144,153.71004 L144,136.590426 C144,115.700974 133.173541,97.3119353 116.860384,86.7294836 C117.867645,83.4891949 118.393635,80.0951661 118.393635,76.6819197 C118.393635,58.1092471 103.32518,43 84.8026501,43 C66.2801201,43 51.211665,58.1103147 51.211665,76.6819197 C51.211665,80.1378717 51.7333964,83.4988037 52.742787,86.7316188 C36.4306946,97.313003 25.6053001,115.702041 25.6053001,136.590426 L25.6053001,153.706837 C25.6053001,173.93542 35.755638,191.822667 51.2106003,202.543912 L51.2106003,220.152506 C51.2106003,223.62554 49.2865826,226.74732 46.1892016,228.300737 L18.5683146,242.148033 C7.11471289,247.891939 0,259.435267 0,272.275778 L0,341.991629 C0,346.413796 3.57545733,349.998932 7.98568492,349.998932 C12.3959125,349.998932 15.9713698,346.413796 15.9713698,341.991629 L15.9713698,275.739204 L28.980583,288.783634 C32.3079517,292.121078 34.1414649,296.557124 34.1414649,301.277162 L34.1414649,341.991629 C34.1414649,346.413796 37.7169223,349.998932 42.1271498,349.998932 C46.5373774,349.998932 50.1128348,346.413796 50.1128348,341.991629 L50.1128348,301.277162 C50.1128348,292.280156 46.618299,283.822309 40.2744709,277.46024 L22.1682613,259.305015 C22.0809512,259.217468 21.9872525,259.141666 21.8978128,259.059457 C23.0339096,258.05374 24.3084249,257.178275 25.7117759,256.473632 L53.3326629,242.626336 C54.7477263,241.916355 56.0648319,241.078258 57.2924979,240.147275 L76.8169651,259.725665 L76.8169651,341.992697 C76.8169651,346.414864 80.3924225,350 84.8026501,350 C89.2128777,350 92.788335,346.414864 92.788335,341.992697 L92.788335,259.724597 L112.313867,240.146208 C113.542598,241.078258 114.858639,241.916355 116.273702,242.625269 L123.889916,246.444218 C125.03666,247.019677 126.254743,247.291925 127.45579,247.291925 C130.38494,247.291925 133.205484,245.669111 134.604576,242.86442 C136.577572,238.908812 134.978306,234.099092 131.033377,232.121822 L123.417163,228.302873 C120.318718,226.749456 118.3947,223.627675 118.3947,220.155709 L118.3947,202.547115 C133.849662,191.82587 144,173.937555 144,153.71004 Z M84.8026501,59.0146062 C94.5185667,59.0146062 102.422265,66.9407686 102.422265,76.6819197 C102.422265,77.7548983 102.326437,78.8065241 102.143299,79.8367971 C96.655536,78.1477899 90.8345041,77.2328221 84.8026501,77.2328221 C78.7793141,77.2328221 72.9657355,78.144587 67.4864909,79.8293236 C67.3022878,78.7990506 67.1830349,77.752763 67.1830349,76.6819197 C67.1830349,66.9397009 75.0867334,59.0146062 84.8026501,59.0146062 Z M84.8026501,93.2484959 C108.637258,93.2484959 128.02863,112.692363 128.02863,136.591494 L128.02863,139.49334 C94.7815619,149.699983 74.9674805,124.34032 74.1209979,123.228906 C72.7314887,121.37228 70.6072965,120.210687 68.2989012,120.04627 C65.9905059,119.883989 63.7225714,120.730628 62.0860384,122.371591 C54.4634359,130.014829 46.9973529,133.701391 41.6054184,135.481148 C42.1963591,112.093417 61.339643,93.2484959 84.8026501,93.2484959 Z M84.8026501,245.082977 L66.3493294,226.579701 C66.8880969,224.514884 67.1830349,222.362521 67.1830349,220.153573 L67.1830349,210.379325 C72.7506544,212.12385 78.669644,213.064441 84.8026501,213.064441 C90.9356561,213.064441 96.8546457,212.12385 102.422265,210.379325 L102.422265,220.153573 C102.422265,222.362521 102.717203,224.515952 103.255971,226.579701 L84.8026501,245.082977 Z M84.8026501,197.049835 C60.9680425,197.049835 41.57667,177.605968 41.57667,153.706837 L41.57667,152.047724 C47.9449875,150.580786 57.3872614,147.17181 67.2373375,139.228565 C70.7222904,142.525439 75.7032283,146.569661 82.0459916,150.038425 C89.5482764,154.141367 99.9094364,157.936828 112.56515,157.936828 C117.374662,157.936828 122.520637,157.376317 127.960486,156.088743 C126.722172,178.885001 107.839754,197.049835 84.8026501,197.049835 Z" id="Shape"></path>
            <path d="M527.44072,224.982045 L482.768815,202.566395 C479.672764,201.012349 477.749572,197.889303 477.749572,194.41593 L477.749572,183.063381 C488.206329,173.746579 494.812445,160.169234 494.812445,145.066681 L494.812445,135.948541 C494.996569,135.948541 495.1775,135.953881 495.361624,135.953881 C499.769959,135.953881 503.343882,132.367292 503.343882,127.943333 L503.343882,110.819985 C503.343882,82.79802 480.626377,60 452.703377,60 L435.640504,60 C407.717504,60 385,82.79802 385,110.819985 L385,127.943333 C385,132.367292 388.573923,135.953881 392.982257,135.953881 C393.048244,135.953881 393.239818,135.951745 393.531437,135.939996 L393.531437,145.066681 C393.531437,160.170302 400.138617,173.747647 410.595374,183.064449 L410.595374,194.416998 C410.595374,197.89144 408.672182,201.014485 405.575066,202.567464 C401.631831,204.545535 400.033251,209.357204 402.005401,213.314415 C403.403892,216.121311 406.223226,217.744782 409.151118,217.744782 C410.350585,217.744782 411.568145,217.472423 412.714397,216.8978 C414.128853,216.187532 415.445393,215.349094 416.672532,214.417734 L436.189684,234.004059 L436.189684,341.989452 C436.189684,346.413411 439.763606,350 444.171941,350 C448.580275,350 452.154198,346.413411 452.154198,341.989452 L452.154198,234.001923 L471.670285,214.415598 C472.898488,215.348026 474.213964,216.186463 475.62842,216.895664 L518.855004,238.586092 L505.74388,251.743685 C499.402775,258.108332 495.909739,266.569607 495.909739,275.570259 L495.909739,341.987316 C495.909739,346.411274 499.483662,349.997864 503.891997,349.997864 C508.300331,349.997864 511.874254,346.411274 511.874254,341.987316 L511.874254,275.570259 C511.874254,270.849376 513.705916,266.410464 517.032921,263.071668 L529.452249,250.608323 C529.829011,252.057698 530.035486,253.569021 530.035486,255.119864 L530.035486,341.987316 C530.035486,346.411274 533.609408,349.997864 538.017743,349.997864 C542.426077,349.997864 546,346.411274 546,341.987316 L546,255.119864 C546.001064,242.275217 538.889405,230.72721 527.44072,224.982045 Z M400.96345,118.284748 L400.96345,110.818917 L400.964514,110.818917 C400.964514,91.6309844 416.520337,76.0200282 435.640504,76.0200282 L452.703377,76.0200282 C471.823544,76.0200282 487.379367,91.6309844 487.379367,110.818917 L487.379367,119.717034 C452.679963,117.838294 431.739841,104.28765 431.53656,104.154141 C430.185962,103.250552 428.644854,102.808369 427.111196,102.808369 C425.05071,102.808369 423.007252,103.607288 421.464015,105.154926 C413.826592,112.819418 406.343492,116.508543 400.96345,118.284748 Z M444.171941,219.355436 L425.726541,200.844662 C426.265077,198.779008 426.559888,196.625773 426.559888,194.41593 L426.559888,192.710217 C432.047424,194.759849 437.980902,195.885598 444.171941,195.885598 C450.36298,195.885598 456.296457,194.759849 461.783993,192.710217 L461.783993,194.41593 C461.783993,196.625773 462.07774,198.779008 462.617341,200.844662 L444.171941,219.355436 Z M444.171941,179.86557 C425.051774,179.86557 409.495951,164.255682 409.495951,145.066681 L409.495951,132.152609 L409.495951,132.152609 C415.086724,129.910724 421.600246,126.346564 428.228712,120.679368 C436.611147,125.056332 454.148698,132.621493 478.847931,135.120784 L478.847931,145.066681 C478.847931,164.254614 463.292108,179.86557 444.171941,179.86557 Z" id="Shape"></path>
        </g>
    </g>
</svg>